<?xml version="1.0" encoding="UTF-8"?>
<svg width="600px" height="119px" viewBox="0 0 600 119" version="1.1" xmlns="http://www.w3.org/2000/svg" xmlns:xlink="http://www.w3.org/1999/xlink">
    <title>robinhood-vector-logo</title>
    <g id="Page-1" stroke="none" stroke-width="1" fill="none" fill-rule="evenodd">
        <g id="robinhood-vector-logo" fill="#000000" fill-rule="nonzero">
            <path d="M549.1,92.9 L548.3,93.2 C543.3,94.9 535.8,97.4 529.2,100.5 C528.8,100.7 528.6,101.1 528.6,101.1 C528.5,101.4 528.3,101.7 528.1,102.1 L528.1,102.2 C527.4,103.9 526.3,106.5 525.9,107.5 L525.6,108.3 C525.5,108.4 525.6,108.6 525.7,108.7 C525.8,108.8 525.8,108.8 525.9,108.8 C525.9,108.8 526,108.8 526.1,108.8 L526.9,108.4 C528.7,107.5 531,106.2 533.5,105.1 L533.6,105.1 C538.2,102.9 543.4,100.4 546.5,99 C546.5,99 547,98.7 547.3,98.2 L549.6,93.5 C549.7,93.4 549.6,93.2 549.6,93.1 C549.3,92.9 549.2,92.9 549.1,92.9 Z" id="Path"></path>
            <path d="M530.3,85.7 C530.6,85.1 532.2,82.1 532.5,81.5 L532.6,81.4 C542.8,62.2 555.2,44.1 569.5,27.6 L569.9,27.1 C570,27 570,26.8 570,26.6 C569.9,26.4 569.7,26.3 569.5,26.4 L568.9,26.5 C559.5,27.8 550,29.6 540.7,31.8 C539.8,32.1 539.2,32.7 539,32.8 C532,41.2 525.4,50 519.3,59 C519,59.5 519,60.5 519,60.5 C519,60.5 520.5,72.3 522.8,80.9 C517.3,96.8 512.3,117.7 512.3,117.7 C512.3,117.8 512.3,118 512.4,118.1 C512.5,118.2 512.6,118.3 512.8,118.3 L515.9,118.3 C516.1,118.3 516.3,118.2 516.3,118 L516.5,117.4 C519.7,108.6 523.4,100 527.4,91.6 C528.3,89.6 530.3,85.7 530.3,85.7 Z" id="Path"></path>
            <path d="M574,30.9 L574,30.3 C574,30.1 573.9,29.9 573.7,29.9 C573.5,29.8 573.3,29.9 573.2,30 L572.8,30.5 C556.2,49.8 542.2,71.1 531.2,94 L530.9,94.5 C530.8,94.7 530.9,94.9 531,95 C531.1,95.1 531.2,95.1 531.3,95.1 C531.4,95.1 531.4,95.1 531.5,95.1 L532,94.9 C541.4,91 550.9,87.7 560.4,84.9 C561,84.7 561.4,84.3 561.7,83.8 C565.9,75.7 575.5,60 575.5,60 C575.7,59.6 575.7,59.1 575.7,59.1 C575.7,59.1 574.2,40.4 574,30.9 Z" id="Path"></path>
            <path d="M595.6,3.9 C593.2,1.9 589.8,0.9 584.5,0.8 C579.7,0.7 573.9,1.7 567.4,3.9 C566.4,4.2 565.6,4.8 565,5.5 C558.4,11.7 551.9,18.3 545.9,25.1 L545.4,25.6 C545.3,25.7 545.3,26 545.3,26.1 C545.4,26.3 545.6,26.4 545.8,26.3 L546.5,26.2 C556.3,24.1 566.2,22.5 575.9,21.4 C576.5,21.3 577.2,21.5 577.7,22 C578.2,22.4 578.5,23.1 578.4,23.7 C578.2,33.3 578.6,43 579.4,52.5 L579.5,53.1 C579.5,53.3 579.6,53.4 579.8,53.5 C579.8,53.5 579.9,53.5 579.9,53.5 C580,53.5 580.2,53.4 580.3,53.3 L580.7,52.8 C586.2,45 592.1,37.4 598.4,30.2 L598.4,30.2 C599.1,29.4 599.3,28.9 599.4,28.2 C601.3,15.6 598.3,6.2 595.6,3.9 Z" id="Path"></path>
            <path d="M145,32 C139.3,32 133.3,34.8 129.6,39.1 L129.4,39.1 L129.4,12.3 L119,12.3 L119,90.4 L128.5,90.4 L128.5,84.9 L128.7,84.9 C132.3,89.1 139,92 144.7,92 C159.7,92 169.3,80.2 169.3,62.1 C169.4,44.3 159.3,32 145,32 Z M143.2,82.4 C135.4,82.4 129.4,77.1 129.4,70 L129.4,54.8 C129.4,47.2 135.4,41.4 143.2,41.4 C153.4,41.4 159,48.8 159,61.8 C159,75.1 153.3,82.4 143.2,82.4 Z" id="Shape"></path>
            <path d="M85.3,32 C69.9,32 59.3,44.3 59.3,61.9 C59.3,80 69.6,91.8 85.3,91.8 C100.8,91.8 111,79.9 111,61.9 C111,44.3 100.5,32 85.3,32 Z M85.3,82.4 C75.6,82.4 69.6,74.5 69.6,61.9 C69.6,49.3 75.6,41.5 85.3,41.5 C94.7,41.5 100.7,49.5 100.7,61.9 C100.7,74.4 94.7,82.4 85.3,82.4 Z" id="Shape"></path>
            <path d="M54.5,37.1 C54.5,23.8 44.7,15.4 29.3,15.4 L0,15.4 L0,90.3 L10.7,90.3 L10.7,60.7 L26,60.7 C37.8,60.7 42,65.4 42,78.5 L42,90.4 L52.4,90.4 L52.4,78.5 C52.4,66.6 48.8,59.5 40.8,56.5 C49,53.6 54.5,46.9 54.5,37.1 Z M28.4,51.1 L10.6,51.1 L10.6,25.1 L28.2,25.1 C38.4,25.1 43.6,29.5 43.6,38.1 C43.7,46.5 38.4,51.1 28.4,51.1 Z" id="Shape"></path>
            <path d="M225.9,32 C219.9,32 213.5,34.9 210.4,39.1 L210.2,39.1 L210.2,33.6 L200.1,33.6 L200.1,90.3 L210.5,90.3 L210.5,54.7 C210.5,46.7 215.7,41.7 224,41.7 C232.1,41.7 236,46.4 236,56.2 L236,90.3 L246.5,90.3 L246.5,53.2 C246.4,40.1 238.5,32 225.9,32 Z" id="Path"></path>
            <path d="M395.1,32 C379.7,32 369.1,44.3 369.1,61.9 C369.1,80 379.4,91.8 395.1,91.8 C410.6,91.8 420.8,79.9 420.8,61.9 C420.8,44.3 410.3,32 395.1,32 Z M395.1,82.4 C385.4,82.4 379.4,74.5 379.4,61.9 C379.4,49.3 385.4,41.5 395.1,41.5 C404.5,41.5 410.5,49.5 410.5,61.9 C410.5,74.4 404.5,82.4 395.1,82.4 Z" id="Shape"></path>
            <path d="M467.2,12.2 L467.2,39 L467,39 C463.3,34.6 457.4,31.9 451.7,31.9 C437.4,31.9 427.2,44.4 427.2,61.8 C427.2,80 436.8,91.7 451.8,91.7 C457.6,91.7 464.2,88.8 467.8,84.6 L468,84.6 L468,90.1 L477.5,90.1 L477.5,12 C477.5,12.2 467.2,12.2 467.2,12.2 Z M467.2,70 C467.2,77.1 461.2,82.4 453.4,82.4 C443.2,82.4 437.6,75 437.6,61.9 C437.6,48.9 443.3,41.5 453.4,41.5 C461.2,41.5 467.2,47.3 467.2,54.9 L467.2,70 Z" id="Shape"></path>
            <path d="M337,32 C321.6,32 311,44.3 311,61.9 C311,80 321.3,91.8 337,91.8 C352.5,91.8 362.7,79.9 362.7,61.9 C362.7,44.3 352.2,32 337,32 Z M337,82.4 C327.3,82.4 321.3,74.5 321.3,61.9 C321.3,49.3 327.3,41.5 337,41.5 C346.4,41.5 352.4,49.5 352.4,61.9 C352.4,74.4 346.5,82.4 337,82.4 Z" id="Shape"></path>
            <rect id="Rectangle" x="177.5" y="12.2" width="11.2" height="11"></rect>
            <path d="M283.4,32 C277.1,32 270.7,35 267.7,39.3 L267.5,39.3 L267.5,12.2 L257.1,12.2 L257.1,90.3 L267.5,90.3 L267.5,54.7 C267.5,47 273.1,41.7 281,41.7 C288.8,41.7 293.3,46.8 293.3,55.7 L293.3,90.3 L303.7,90.3 L303.7,53 C303.6,40.1 295.8,32 283.4,32 Z" id="Path"></path>
            <rect id="Rectangle" x="177.9" y="33.6" width="10.4" height="56.7"></rect>
        </g>
    </g>
</svg>